<svg xmlns="http://www.w3.org/2000/svg" viewBox="0 0 24 24"><linearGradient id="a" x1="3.753" x2="3.75" y1="-410.038" y2="-410.034" gradientTransform="matrix(1981.5812 0 0 -1980.0968 -7415.078 -811889.625)" gradientUnits="userSpaceOnUse"><stop offset="0" stop-color="#fb7655"/><stop offset="0" stop-color="#fb7655"/><stop offset=".41" stop-color="#e42b1e"/><stop offset=".99" stop-color="#900"/><stop offset="1" stop-color="#900"/></linearGradient><path fill="url(#a)" d="M18.594 15.83 4.891 23.967l17.742-1.204L24 4.873 18.594 15.83z"/><linearGradient id="b" x1="1.042" x2="1.031" y1="-409.364" y2="-409.36" gradientTransform="matrix(588.89 0 0 -1091.4792 -590.31 -446793.906)" gradientUnits="userSpaceOnUse"><stop offset="0" stop-color="#871101"/><stop offset="0" stop-color="#871101"/><stop offset=".99" stop-color="#911209"/><stop offset="1" stop-color="#911209"/></linearGradient><path fill="url(#b)" d="m22.663 22.75-1.525-10.525-4.154 5.485 5.679 5.04z"/><linearGradient id="c" x1="3.729" x2="3.725" y1="-402.143" y2="-402.123" gradientTransform="matrix(1838.8894 0 0 -214.6868 -6838.169 -86308.43)" gradientUnits="userSpaceOnUse"><stop offset="0" stop-color="#871101"/><stop offset="0" stop-color="#871101"/><stop offset=".99" stop-color="#911209"/><stop offset="1" stop-color="#911209"/></linearGradient><path fill="url(#c)" d="m22.683 22.75-11.172-.877-6.561 2.07 17.733-1.193z"/><linearGradient id="d" x1="3.738" x2="3.74" y1="-408.983" y2="-408.99" gradientTransform="matrix(636.8931 0 0 -948.1528 -2376.01 -387762.75)" gradientUnits="userSpaceOnUse"><stop offset="0" stop-color="#fff"/><stop offset="0" stop-color="#fff"/><stop offset=".23" stop-color="#e57252"/><stop offset=".46" stop-color="#de3b20"/><stop offset=".99" stop-color="#a60003"/><stop offset="1" stop-color="#a60003"/></linearGradient><path fill="url(#d)" d="m4.966 23.946 2.791-9.143-6.142 1.313 3.351 7.83z"/><linearGradient id="e" x1="3.295" x2="3.295" y1="-409.777" y2="-409.784" gradientTransform="matrix(1028.4187 0 0 -1043.1245 -3376.95 -427439.625)" gradientUnits="userSpaceOnUse"><stop offset="0" stop-color="#fff"/><stop offset="0" stop-color="#fff"/><stop offset=".23" stop-color="#e4714e"/><stop offset=".56" stop-color="#be1a0d"/><stop offset=".99" stop-color="#a80d00"/><stop offset="1" stop-color="#a80d00"/></linearGradient><path fill="url(#e)" d="M16.983 17.74 14.415 7.682l-7.349 6.889 9.917 3.169z"/><linearGradient id="f" x1="2.378" x2="2.38" y1="-410.517" y2="-410.525" gradientTransform="matrix(921.017 0 0 -648.5522 -2172.67 -266238.688)" gradientUnits="userSpaceOnUse"><stop offset="0" stop-color="#fff"/><stop offset="0" stop-color="#fff"/><stop offset=".18" stop-color="#e46342"/><stop offset=".4" stop-color="#c82410"/><stop offset=".99" stop-color="#a80d00"/><stop offset="1" stop-color="#a80d00"/></linearGradient><path fill="url(#f)" d="M23.417 7.823 16.47 2.149l-1.934 6.254 8.881-.58z"/><linearGradient id="g" x1="1.988" x2="1.995" y1="-412.304" y2="-412.293" gradientTransform="matrix(691.0189 0 0 -237.2921 -1359.582 -97834.96)" gradientUnits="userSpaceOnUse"><stop offset="0" stop-color="#fff"/><stop offset="0" stop-color="#fff"/><stop offset=".54" stop-color="#c81f11"/><stop offset=".99" stop-color="#bf0905"/><stop offset="1" stop-color="#bf0905"/></linearGradient><path fill="url(#g)" d="m20.169.126-4.086 2.258L13.505.096l6.664.03z"/><linearGradient id="h" x1="3.98" x2="3.982" y1="-408.998" y2="-409.003" gradientTransform="matrix(177.4931 0 0 -709.3571 -705.972 -290111.625)" gradientUnits="userSpaceOnUse"><stop offset="0" stop-color="#fff"/><stop offset="0" stop-color="#fff"/><stop offset=".31" stop-color="#de4024"/><stop offset=".99" stop-color="#bf190b"/><stop offset="1" stop-color="#bf190b"/></linearGradient><path fill="url(#h)" d="m0 19.183 1.712-3.122-1.385-3.719L0 19.183z"/><path fill="#FFF" d="m.235 12.225 1.393 3.951 6.053-1.358 6.911-6.423 1.95-6.195L13.471.032 8.25 1.987c-1.645 1.53-4.837 4.557-4.952 4.614-.113.058-2.107 3.827-3.063 5.624z"/><linearGradient id="i" x1="3.94" x2="3.952" y1="-410.329" y2="-410.317" gradientTransform="matrix(1544.4148 0 0 -1542.2133 -6087.566 -632796.625)" gradientUnits="userSpaceOnUse"><stop offset="0" stop-color="#bd0012"/><stop offset="0" stop-color="#bd0012"/><stop offset=".07" stop-color="#fff"/><stop offset=".17" stop-color="#fff"/><stop offset=".27" stop-color="#c82f1c"/><stop offset=".33" stop-color="#820c01"/><stop offset=".46" stop-color="#a31601"/><stop offset=".72" stop-color="#b31301"/><stop offset=".99" stop-color="#e82609"/><stop offset="1" stop-color="#e82609"/></linearGradient><path fill="url(#i)" d="M5.126 5.127c3.565-3.535 8.161-5.623 9.924-3.844 1.763 1.779-.107 6.104-3.672 9.637-3.565 3.533-8.104 5.737-9.866 3.957-1.763-1.777.049-6.217 3.614-9.75z"/><linearGradient id="j" x1="3.591" x2="3.587" y1="-408.995" y2="-408.994" gradientTransform="matrix(1240.8304 0 0 -951.1702 -4444.292 -389003.25)" gradientUnits="userSpaceOnUse"><stop offset="0" stop-color="#8c0c01"/><stop offset="0" stop-color="#8c0c01"/><stop offset=".54" stop-color="#990c00"/><stop offset=".99" stop-color="#a80d0e"/><stop offset="1" stop-color="#a80d0e"/></linearGradient><path fill="url(#j)" d="m4.966 23.942 2.769-9.172 9.196 2.954c-3.324 3.119-7.022 5.755-11.965 6.218z"/><linearGradient id="k" x1="2.369" x2="2.364" y1="-409.769" y2="-409.765" gradientTransform="matrix(917.9897 0 0 -1031.1821 -2153.531 -422532.469)" gradientUnits="userSpaceOnUse"><stop offset="0" stop-color="#7e110b"/><stop offset="0" stop-color="#7e110b"/><stop offset=".99" stop-color="#9e0c00"/><stop offset="1" stop-color="#9e0c00"/></linearGradient><path fill="url(#k)" d="m14.604 8.378 2.361 9.352c2.778-2.921 5.27-6.06 6.491-9.944l-8.852.592z"/><linearGradient id="l" x1="1.829" x2="1.825" y1="-410.685" y2="-410.682" gradientTransform="matrix(778.2689 0 0 -798.665 -1399.705 -327994.219)" gradientUnits="userSpaceOnUse"><stop offset="0" stop-color="#79130d"/><stop offset="0" stop-color="#79130d"/><stop offset=".99" stop-color="#9e120b"/><stop offset="1" stop-color="#9e120b"/></linearGradient><path fill="url(#l)" d="M23.432 7.833C24.377 4.982 24.595.891 20.14.131L16.484 2.15l6.948 5.683z"/><path fill="#9E1209" d="M0 19.142c.131 4.706 3.526 4.776 4.973 4.818l-3.341-7.802L0 19.142z"/><radialGradient id="m" cx="2.348" cy="-409.485" r=".007" gradientTransform="matrix(909.2308 0 0 -475.1044 -2117.128 -194538.344)" gradientUnits="userSpaceOnUse"><stop offset="0" stop-color="#a80d00"/><stop offset="0" stop-color="#a80d00"/><stop offset=".99" stop-color="#7e0e08"/><stop offset="1" stop-color="#7e0e08"/></radialGradient><path fill="url(#m)" d="M14.617 8.393c2.134 1.312 6.436 3.947 6.523 3.995.136.076 1.855-2.899 2.245-4.58l-8.768.585z"/><radialGradient id="n" cx="3.163" cy="-408.705" r=".009" gradientTransform="matrix(951.4143 0 0 -740.6335 -2999.848 -302683.219)" gradientUnits="userSpaceOnUse"><stop offset="0" stop-color="#a30c00"/><stop offset="0" stop-color="#a30c00"/><stop offset=".99" stop-color="#800e08"/><stop offset="1" stop-color="#800e08"/></radialGradient><path fill="url(#n)" d="m7.732 14.77 3.702 7.142c2.189-1.187 3.903-2.633 5.473-4.183L7.732 14.77z"/><linearGradient id="o" x1="3.709" x2="3.704" y1="-408.615" y2="-408.606" gradientTransform="matrix(391.9162 0 0 -792.3398 -1450.355 -323738.125)" gradientUnits="userSpaceOnUse"><stop offset="0" stop-color="#8b2114"/><stop offset="0" stop-color="#8b2114"/><stop offset=".43" stop-color="#9e100a"/><stop offset=".99" stop-color="#b3100c"/><stop offset="1" stop-color="#b3100c"/></linearGradient><path fill="url(#o)" d="m1.617 16.167-.524 6.246c.99 1.352 2.351 1.469 3.779 1.364-1.033-2.572-3.097-7.714-3.255-7.61z"/><linearGradient id="p" x1="1.781" x2="1.787" y1="-411.705" y2="-411.712" gradientTransform="matrix(762.6236 0 0 -318.554 -1339.37 -131149.188)" gradientUnits="userSpaceOnUse"><stop offset="0" stop-color="#b31000"/><stop offset="0" stop-color="#b31000"/><stop offset=".44" stop-color="#910f08"/><stop offset=".99" stop-color="#791c12"/><stop offset="1" stop-color="#791c12"/></linearGradient><path fill="url(#p)" d="m16.462 2.166 7.354 1.032C23.423 1.535 22.218.462 20.164.126l-3.702 2.04z"/></svg>